<svg width="38" height="38" viewBox="0 0 38 38" fill="none" xmlns="http://www.w3.org/2000/svg">
<path d="M34.8991 31.6209C34.8991 31.6209 33.7057 27.7431 30.4743 26.5497V12.1317C30.4743 12.1317 30.226 6.26518 22.0219 4.57458C22.0219 4.57394 22.3201 0 19.0388 0H18.9396C15.6582 0 15.9564 4.57394 15.9564 4.57394C7.75299 6.26454 7.50407 12.1311 7.50407 12.1311V26.5491C4.27262 27.7425 3.07922 31.6202 3.07922 31.6202H34.8991V31.6209Z" fill="white"/>
<path d="M22.9779 33.5967C22.9779 35.7659 21.2194 37.5243 19.0502 37.5243C16.881 37.5243 15.1226 35.7659 15.1226 33.5967H22.9779Z" fill="white"/>
<path fill-rule="evenodd" clip-rule="evenodd" d="M7.93446 2.71829C8.50423 3.41649 8.40011 4.44438 7.7019 5.01414C5.16987 7.08039 4.06788 9.62935 3.59558 11.6954C3.35901 12.7302 3.28369 13.633 3.26724 14.27C3.25904 14.5875 3.26555 14.836 3.27337 14.9984C3.27728 15.0795 3.2815 15.1387 3.28434 15.174C3.28576 15.1917 3.28683 15.2033 3.28734 15.2086C3.28745 15.2098 3.28754 15.2106 3.28759 15.2112C3.3827 16.1046 2.73729 16.9074 1.84346 17.0057C0.947688 17.1043 0.141634 16.458 0.0430876 15.5622L1.65746 15.3846C0.0430874 15.5622 0.0430066 15.5615 0.0429232 15.5607L0.0427425 15.5591L0.0423334 15.5553L0.0413344 15.5457C0.0405916 15.5385 0.0396999 15.5296 0.0386881 15.519C0.0366648 15.4978 0.03416 15.4699 0.0314051 15.4357C0.0258966 15.3672 0.0193785 15.2731 0.0137123 15.1555C0.0023885 14.9206 -0.00558793 14.5912 0.00488075 14.1857C0.0257681 13.3767 0.120372 12.2535 0.414198 10.9681C1.00268 8.39386 2.4033 5.12588 5.63861 2.48573C6.33681 1.91597 7.3647 2.02009 7.93446 2.71829Z" fill="white"/>
<path fill-rule="evenodd" clip-rule="evenodd" d="M30.0656 2.71829C30.6353 2.02009 31.6632 1.91597 32.3614 2.48573C35.5967 5.12588 36.9973 8.39386 37.5858 10.9681C37.8797 12.2535 37.9743 13.3767 37.9951 14.1857C38.0056 14.5912 37.9976 14.9206 37.9863 15.1555C37.9806 15.2731 37.9741 15.3672 37.9686 15.4357C37.9659 15.4699 37.9634 15.4978 37.9613 15.519C37.9603 15.5296 37.9594 15.5385 37.9587 15.5457L37.9577 15.5553L37.9573 15.5591L37.9571 15.5607C37.957 15.5615 37.9569 15.5622 36.335 15.3838L37.9569 15.5622C37.8584 16.458 37.0523 17.1043 36.1566 17.0057C35.2627 16.9074 34.6173 16.1046 34.7124 15.2112C34.7125 15.2106 34.7126 15.2098 34.7127 15.2086C34.7132 15.2033 34.7143 15.1917 34.7157 15.174C34.7185 15.1387 34.7227 15.0795 34.7267 14.9984C34.7345 14.836 34.741 14.5875 34.7328 14.27C34.7163 13.633 34.641 12.7302 34.4045 11.6954C33.9322 9.62935 32.8302 7.08039 30.2981 5.01414C29.5999 4.44438 29.4958 3.41649 30.0656 2.71829Z" fill="white"/>
</svg>
