<svg width="38" height="34" viewBox="0 0 38 34" fill="none" xmlns="http://www.w3.org/2000/svg">
<path d="M38 9.68006C37.7815 10.3694 37.2553 10.7356 36.6459 11.0587C31.1159 13.9961 25.592 16.9396 20.0743 19.9C19.3388 20.2939 18.6772 20.3001 17.9402 19.9046C12.3347 16.8996 6.72007 13.913 1.11003 10.9187C0.0837243 10.3709 -0.256325 9.45541 0.228361 8.5599C0.453009 8.14445 0.834602 7.9275 1.24851 7.7444C6.23231 5.52407 11.2161 3.30067 16.1984 1.07881C16.8631 0.781848 17.5309 0.491037 18.1925 0.186377C18.731 -0.061351 19.2573 -0.061351 19.8004 0.181761C25.492 2.72521 31.1852 5.26558 36.8814 7.79825C37.4676 8.05983 37.8169 8.4922 38 9.08613V9.68006Z" fill="white"/>
<path d="M38 16.5071C37.8307 17.1687 37.3768 17.5518 36.7906 17.8642C31.2067 20.8292 25.629 23.8035 20.0574 26.7916C19.3342 27.1794 18.6818 27.1855 17.9571 26.7963C12.364 23.7974 6.75855 20.82 1.16543 17.8211C0.837689 17.6457 0.513027 17.4011 0.289918 17.1102C-0.140914 16.5486 -0.0732119 15.77 0.371468 15.2177C0.808454 14.6745 1.55626 14.4714 2.21173 14.7268C2.37176 14.7899 2.52716 14.8699 2.67796 14.9515C7.98334 17.7811 13.2903 20.6092 18.591 23.4496C18.8818 23.605 19.1003 23.6173 19.3973 23.4573C24.7196 20.6061 30.0496 17.7703 35.3735 14.9207C36.0536 14.5576 36.7275 14.4514 37.343 14.9622C37.6292 15.1992 37.7846 15.5931 37.9985 15.9147V16.5086L38 16.5071Z" fill="white"/>
<path d="M38 22.8893C37.8092 23.5386 37.3522 23.9202 36.7675 24.231C31.2159 27.1776 25.669 30.1319 20.1328 33.1062C19.345 33.5293 18.6541 33.5262 17.8663 33.1031C12.2763 30.0996 6.67082 27.1207 1.07155 24.1341C0.179114 23.6587 -0.184016 22.8832 0.0975635 22.0646C0.392991 21.2029 1.33928 20.7536 2.19941 21.0798C2.40559 21.1583 2.60254 21.266 2.79795 21.3706C8.08334 24.1864 13.3672 27.0022 18.6479 29.8288C18.9049 29.9673 19.0942 29.9673 19.3527 29.8288C24.6981 26.9684 30.0481 24.1172 35.3981 21.266C36.1997 20.8398 36.8937 20.849 37.4214 21.3737C37.6722 21.623 37.8107 21.9861 38 22.2969V22.8909V22.8893Z" fill="white"/>
</svg>
