<svg xmlns="http://www.w3.org/2000/svg" width="20" height="21" viewBox="0 0 20 21" fill="none">
<path fill-rule="evenodd" clip-rule="evenodd" d="M19.5818 2.93872C20.1397 2.38083 20.1397 1.47631 19.5818 0.918419C19.0239 0.360527 18.1194 0.360527 17.5615 0.918419L10.0002 8.4797L2.43897 0.918419C1.88108 0.360527 0.976555 0.360527 0.418663 0.918419C-0.139229 1.47631 -0.139229 2.38083 0.418663 2.93872L7.97994 10.5L0.418663 18.0613C-0.139229 18.6192 -0.139229 19.5237 0.418663 20.0816C0.976555 20.6395 1.88108 20.6395 2.43897 20.0816L10.0002 12.5203L17.5615 20.0816C18.1194 20.6395 19.0239 20.6395 19.5818 20.0816C20.1397 19.5237 20.1397 18.6192 19.5818 18.0613L12.0205 10.5L19.5818 2.93872Z" fill="#222222"/>
</svg>