<svg width="38" height="34" viewBox="0 0 38 34" fill="none" xmlns="http://www.w3.org/2000/svg">
<g clip-path="url(#clip0_289_81)">
<path d="M3.59145 22.4153C1.6109 22.4153 0 20.809 0 18.8239C0 16.8388 1.60634 15.2324 3.59145 15.2324V22.4108V22.4153Z" fill="white"/>
<path d="M34.4086 22.4153C36.3891 22.4153 38 20.809 38 18.8239C38 16.8388 36.3937 15.2324 34.4086 15.2324V22.4108V22.4153Z" fill="white"/>
<path d="M27.9421 9.19083H27.4447L30.5296 4.37637C30.6483 4.39462 30.7669 4.41287 30.8901 4.41287C32.1086 4.41287 33.0943 3.42717 33.0943 2.20872C33.0943 0.990273 32.1086 0.00456347 30.8901 0.00456347C29.6717 0.00456347 28.686 0.990273 28.686 2.20872C28.686 2.80653 28.9278 3.34959 29.3112 3.74661L25.8247 9.19083H12.1799L8.68885 3.74204C9.07674 3.34502 9.31404 2.80197 9.31404 2.20416C9.31404 0.985709 8.32833 0 7.10989 0C5.89144 0 4.90573 0.985709 4.90573 2.20416C4.90573 3.4226 5.89144 4.40831 7.10989 4.40831C7.2331 4.40831 7.35175 4.39006 7.4704 4.3718L10.5553 9.18626H10.0579C7.03231 9.18626 4.58173 11.6368 4.58173 14.6624V27.901C4.58173 30.9266 7.03231 33.3772 10.0579 33.3772H27.9421C30.9677 33.3772 33.4183 30.9266 33.4183 27.901V14.6624C33.4183 11.6368 30.9677 9.18626 27.9421 9.18626V9.19083ZM10.2724 17.8979C10.2724 16.3007 11.5684 15.0001 13.1702 15.0001C14.7719 15.0001 16.068 16.2961 16.068 17.8979C16.068 19.4997 14.7719 20.7957 13.1702 20.7957C11.5684 20.7957 10.2724 19.4997 10.2724 17.8979ZM26.2263 27.4995H11.719V24.588H26.2263V27.4995ZM24.8481 20.7912C23.2509 20.7912 21.9503 19.4951 21.9503 17.8934C21.9503 16.2916 23.2463 14.9956 24.8481 14.9956C26.4499 14.9956 27.7459 16.2916 27.7459 17.8934C27.7459 19.4951 26.4499 20.7912 24.8481 20.7912Z" fill="white"/>
</g>
<defs>
<clipPath id="clip0_289_81">
<rect width="38" height="33.3772" fill="white"/>
</clipPath>
</defs>
</svg>
