<svg width="38" height="35" viewBox="0 0 38 35" fill="none" xmlns="http://www.w3.org/2000/svg">
<path d="M28.164 11.2811L26.1856 15.3045C24.1628 8.6025 19.2169 4.77917 11.4591 3.93448C10.6922 1.65604 8.55827 0 6.0242 0C2.8455 0 0.266968 2.57853 0.266968 5.75723C0.266968 8.93593 2.8455 11.5145 6.0242 11.5145C9.2029 11.5145 11.7814 8.93593 11.7814 5.75723C11.7814 5.52383 11.737 5.31266 11.7147 5.09037C18.8502 5.97952 23.3737 9.60279 25.1964 15.8713L21.0174 13.4261L20.4506 14.382L26.2078 17.7496L29.1531 11.759L28.1529 11.2699L28.164 11.2811Z" fill="white"/>
<path d="M38 12.1263L37.8777 10.5258L35.8549 8.79199L34.1211 10.8148L34.2434 12.4153L35.4882 10.9704C36.6441 26.2971 32.9096 31.1985 30.5534 32.7545C28.6973 33.9771 26.43 33.9882 24.1738 32.7879C22.5955 31.9432 19.5057 30.6428 16.0492 29.4424C17.8386 28.9534 19.5057 28.4533 20.8506 28.0198C21.6841 30.176 23.7625 31.7209 26.2077 31.7209C29.3864 31.7209 31.9649 29.1424 31.9649 25.9637C31.9649 22.785 29.3864 20.2064 26.2077 20.2064C23.029 20.2064 20.4505 22.785 20.4505 25.9637C20.4505 26.3082 20.4949 26.6305 20.5505 26.9528C18.661 27.553 16.4159 28.2199 14.1153 28.7978C8.6359 27.0417 2.77864 25.8081 0.800287 27.2196C0.355713 27.5419 -0.133318 28.1421 0.0333973 29.2202C0.144541 29.8981 0.533543 30.4427 1.17817 30.8206C3.42327 32.1432 8.99156 31.2207 14.093 29.9537C17.9275 31.1985 21.6286 32.6878 23.6403 33.7659C24.9295 34.455 26.2299 34.7996 27.4747 34.7996C28.7195 34.7996 30.0199 34.4328 31.1425 33.6881C35.5326 30.7984 37.4443 22.7183 36.5774 10.9259L37.9889 12.1374L38 12.1263ZM1.75612 29.8537C1.40046 29.6425 1.2004 29.3758 1.14483 29.0312C1.05592 28.4866 1.26709 28.2532 1.45603 28.1198C1.88949 27.8086 2.62304 27.6753 3.55664 27.6753C5.64614 27.6753 8.76927 28.3532 12.0035 29.3091C7.59115 30.3094 3.40104 30.8429 1.74501 29.8648L1.75612 29.8537Z" fill="white"/>
</svg>
